<svg width="1112" height="1022" viewBox="0 0 1112 1022" fill="none" xmlns="http://www.w3.org/2000/svg">
<path d="M211.164 1022C175.912 1022 141.594 1016 109.166 1004.15C83.2433 994.684 64.7408 983.598 50.971 969.277C16.9069 933.836 13.2649 879.925 12.4663 827.728C11.882 789.364 12.3105 750.104 12.7 712.131C13.557 632.851 14.4334 550.864 6.25337 471.312C-4.63391 365.554 -9.28884 254.36 62.0335 159.728C129.324 70.4337 247.916 18.003 414.536 3.85778C444.666 1.30541 475.146 0 505.14 0C615.376 0 718.679 16.795 812.185 49.9368C915.02 86.3909 1001.28 141.257 1068.57 213.016C1083.67 229.129 1100.08 248.69 1107.43 271.74C1117.63 303.868 1108.85 337.945 1099.67 360.897C1078.31 414.263 1036.45 459.29 984.804 484.463C954.401 499.29 920.824 507.396 888.376 515.248C862.57 521.482 835.868 527.951 810.782 537.751C704.071 579.427 633.255 676.32 564.796 770.036C496.668 863.286 426.222 959.711 320.465 1001.43C285.895 1015.08 249.123 1022 211.164 1022Z" fill="#D1C2FF"/>
</svg>
