<svg width="750" height="785" viewBox="0 0 750 785" fill="none" xmlns="http://www.w3.org/2000/svg">
<path d="M181.565 785C157.911 785 137.683 781.652 119.714 774.742C79.0054 759.13 44.4881 721.931 24.9808 672.682C6.66109 626.431 2.68955 575.645 0.411761 531.652C-2.35274 478.374 8.78314 445.827 34.4229 432.103C42.0156 428.054 50.6984 425.933 59.1088 423.889C69.8747 421.28 80.9912 418.575 89.9466 411.742C116.209 391.731 110.369 350.386 104.723 310.403C101.199 285.389 97.8702 261.777 102.406 244.433C105.249 233.571 109.707 223.293 114.029 213.365C119.811 200.051 125.788 186.288 127.91 171.047C130.733 150.705 129.467 129.234 128.241 108.483C127.189 90.8862 126.119 72.6856 127.54 55.2052C135.405 54.0762 143.699 53.5117 152.206 53.5117C182.051 53.5117 212.461 60.4026 241.877 67.0599C271.275 73.7173 301.684 80.6082 331.51 80.6082C342.801 80.6082 353.256 79.6544 363.438 77.7078C395.113 71.6344 424.062 55.3999 452.038 39.6909C482.778 22.4442 514.551 4.61342 549.672 0.622922C553.332 0.214139 556.894 0 560.282 0C574.513 0 585.746 3.58174 593.69 10.6673C606.714 22.2884 609.186 41.9295 609.907 59.624C610.841 82.4769 610.452 105.953 610.062 128.65C609.128 184.283 608.174 241.805 626.572 294.908C639.479 332.185 661.537 365.822 682.835 398.369C691.888 412.19 701.252 426.478 709.779 440.843C745.64 501.227 757.593 554.699 745.348 599.782C733.53 643.25 697.787 681.695 647.286 705.268C601.886 726.447 551.599 733.902 502.967 741.124L254.882 777.876C228.717 781.788 205.121 785 181.565 785Z" fill="#D1C2FF"/>
</svg>
