<svg width="1226" height="600" viewBox="0 0 1226 600" fill="none" xmlns="http://www.w3.org/2000/svg">
<path d="M693.432 600C676.709 600 659.771 599.786 643.067 599.377C607.946 598.521 570.76 596.731 535.931 585.346C469.932 563.784 416.88 506.24 400.76 438.752L400.098 435.989C396.886 422.308 393.226 406.818 380.824 399.753C376.755 397.438 372.102 396.27 367.04 396.27C358.202 396.27 348.175 399.617 335.482 406.837C307.875 422.522 281.437 441.34 255.875 459.516C215.38 488.317 173.503 518.111 126.408 535.781C116.245 539.595 102.851 543.974 89.3008 543.974C86.3416 543.974 83.4214 543.76 80.6374 543.351C62.7068 540.685 47.3459 529.885 34.9249 511.203C22.4261 492.423 15.6316 469.616 12.1467 453.814C-4.67418 377.841 -4.01228 297.684 14.0546 222.003C23.419 182.771 38.663 159.419 60.6626 150.642C68.6058 147.47 77.464 145.933 87.7629 145.933C98.8211 145.933 110.346 147.704 121.502 149.397C132.657 151.109 144.183 152.861 155.241 152.861C168.558 152.861 179.265 150.37 188.961 145.057C205.937 135.716 217.638 119.914 230.001 103.179C242.052 86.8708 254.531 70.0182 272.364 59.568C340.135 20.0441 421.709 0 514.866 0C553.511 0 593.889 3.52234 634.851 10.4891C732.623 27.1082 828.019 60.6772 920.261 93.137C943.877 101.447 968.31 110.048 992.373 118.221C1076.17 146.672 1171.15 178.918 1210.34 259.892C1229.89 300.292 1231.18 349.157 1213.97 397.477C1197.94 442.449 1166.56 484.581 1127.86 513.032C1048.29 571.549 944.5 586.689 853.465 593.792C800.452 597.918 746.621 600 693.432 600Z" fill="#D1C2FF"/>
</svg>
